<svg width="16" height="16" viewBox="0 0 16 16" fill="none" xmlns="http://www.w3.org/2000/svg">
<path d="M6.58824 0C5.58977 0 4.63221 0.396638 3.92619 1.10266C3.22017 1.80868 2.82353 2.76624 2.82353 3.76471C2.82353 4.76317 3.22017 5.72074 3.92619 6.42675C4.63221 7.13277 5.58977 7.52941 6.58824 7.52941C7.5867 7.52941 8.54427 7.13277 9.25028 6.42675C9.9563 5.72074 10.3529 4.76317 10.3529 3.76471C10.3529 2.76624 9.9563 1.80868 9.25028 1.10266C8.54427 0.396638 7.5867 0 6.58824 0ZM3.76471 3.76471C3.76471 3.01586 4.06218 2.29768 4.5917 1.76817C5.12121 1.23865 5.83939 0.941176 6.58824 0.941176C7.33708 0.941176 8.05526 1.23865 8.58477 1.76817C9.11429 2.29768 9.41177 3.01586 9.41177 3.76471C9.41177 4.51355 9.11429 5.23173 8.58477 5.76124C8.05526 6.29076 7.33708 6.58824 6.58824 6.58824C5.83939 6.58824 5.12121 6.29076 4.5917 5.76124C4.06218 5.23173 3.76471 4.51355 3.76471 3.76471ZM1.89082 8.47059C1.64292 8.46947 1.39723 8.51734 1.16788 8.61143C0.938521 8.70553 0.730011 8.84401 0.55432 9.01891C0.378629 9.19382 0.239218 9.4017 0.144092 9.63063C0.0489653 9.85957 -2.50999e-06 10.105 0 10.3529C0 11.9445 0.784 13.1445 2.00941 13.9266C3.216 14.6955 4.84235 15.0588 6.58824 15.0588C6.97537 15.0588 7.35498 15.0409 7.72706 15.0052C7.50247 14.7256 7.30754 14.4234 7.14541 14.1035C6.96282 14.1129 6.7771 14.1176 6.58824 14.1176C4.95529 14.1176 3.52282 13.7751 2.51576 13.1322C1.52753 12.5016 0.941176 11.5859 0.941176 10.3529C0.941176 9.83247 1.36282 9.41177 1.89082 9.41177H7.152C7.3258 9.0742 7.53224 8.76047 7.77129 8.47059H1.89082ZM16 11.7647C16 12.888 15.5538 13.9652 14.7595 14.7595C13.9652 15.5538 12.888 16 11.7647 16C10.6414 16 9.56417 15.5538 8.7699 14.7595C7.97563 13.9652 7.52941 12.888 7.52941 11.7647C7.52941 10.6414 7.97563 9.56417 8.7699 8.7699C9.56417 7.97563 10.6414 7.52941 11.7647 7.52941C12.888 7.52941 13.9652 7.97563 14.7595 8.7699C15.5538 9.56417 16 10.6414 16 11.7647ZM12.2127 9.28C12.1855 9.18207 12.127 9.09574 12.0461 9.03423C11.9652 8.97272 11.8663 8.93942 11.7647 8.93942C11.6631 8.93942 11.5642 8.97272 11.4833 9.03423C11.4024 9.09574 11.3439 9.18207 11.3167 9.28L10.8678 10.7219H9.41177C8.95623 10.7219 8.76612 11.3308 9.13506 11.6104L10.3115 12.5016L9.86259 13.9435C9.72141 14.3953 10.2184 14.7718 10.5873 14.4922L11.7638 13.6009L12.9402 14.4922C13.3092 14.7718 13.8061 14.3953 13.6649 13.9435L13.216 12.5016L14.3925 11.6104C14.7614 11.3308 14.5713 10.7219 14.1158 10.7219H12.6616L12.2127 9.28Z" fill="white"/>
</svg>
