<svg width="32" height="32" viewBox="0 0 32 32" fill="none" xmlns="http://www.w3.org/2000/svg">
<g filter="url(#filter0_b_984_575)">
<path d="M18.8595 8.99632C18.8338 9.06996 18.7857 9.13374 18.7221 9.17878C18.6597 9.22342 18.5851 9.24785 18.5084 9.24876H18.5034C18.4251 9.24914 18.3486 9.225 18.2847 9.17973C18.2209 9.13445 18.1728 9.07032 18.1472 8.99632L17.836 8.04153C17.7395 7.75013 17.5765 7.48522 17.3598 7.26785C17.143 7.05048 16.8786 6.88662 16.5875 6.7893L15.6315 6.47812C15.5577 6.45225 15.4937 6.40407 15.4485 6.34027C15.4032 6.27646 15.3789 6.20017 15.3789 6.12195C15.3789 6.04373 15.4032 5.96744 15.4485 5.90363C15.4937 5.83982 15.5577 5.79165 15.6315 5.76578L16.5875 5.45584C16.8748 5.35643 17.1352 5.19205 17.3485 4.9755C17.5618 4.75895 17.7222 4.49608 17.8173 4.20737L18.1284 3.25258C18.1543 3.17876 18.2025 3.1148 18.2663 3.06955C18.3301 3.0243 18.4064 3 18.4846 3C18.5628 3 18.6391 3.0243 18.7029 3.06955C18.7667 3.1148 18.8149 3.17876 18.8408 3.25258L19.152 4.20737C19.2489 4.49808 19.4122 4.76223 19.6289 4.97892C19.8456 5.19561 20.1097 5.3589 20.4004 5.45584L21.3565 5.76578L21.3752 5.77077C21.4485 5.79722 21.5118 5.8456 21.5566 5.90934C21.6013 5.97308 21.6253 6.04907 21.6253 6.12695C21.6253 6.20483 21.6013 6.28081 21.5566 6.34455C21.5118 6.40829 21.4485 6.45667 21.3752 6.48312L20.4192 6.79305C20.1282 6.88983 19.8638 7.05304 19.6469 7.26974C19.43 7.48644 19.2665 7.75068 19.1695 8.04153L18.8595 8.99632ZM23.9097 10.2123L23.1448 9.96236C22.9121 9.88543 22.7005 9.75521 22.5269 9.58207C22.3533 9.40894 22.2226 9.19766 22.1451 8.96507L21.8976 8.20024C21.8767 8.14142 21.8381 8.09051 21.787 8.05451C21.736 8.01851 21.6751 7.99918 21.6127 7.99918C21.5502 7.99918 21.4893 8.01851 21.4383 8.05451C21.3873 8.09051 21.3487 8.14142 21.3277 8.20024L21.0778 8.96507C21.0022 9.19602 20.8742 9.40634 20.7038 9.57957C20.5334 9.7528 20.3252 9.88424 20.0955 9.96361L19.3294 10.2123C19.271 10.2335 19.2206 10.2721 19.1849 10.323C19.1492 10.3739 19.1301 10.4345 19.1301 10.4966C19.1301 10.5587 19.1492 10.6194 19.1849 10.6702C19.2206 10.7211 19.271 10.7597 19.3294 10.7809L20.0955 11.0309C20.3283 11.1082 20.5398 11.2389 20.7132 11.4125C20.8866 11.5861 21.017 11.7977 21.094 12.0307L21.3427 12.7967C21.3579 12.8412 21.3832 12.8814 21.4167 12.9143C21.4503 12.9472 21.491 12.9717 21.5358 12.9859C21.5805 13.0001 21.628 13.0036 21.6743 12.9962C21.7207 12.9887 21.7646 12.9705 21.8026 12.943C21.8536 12.9069 21.8921 12.8557 21.9126 12.7967L22.1626 12.0319C22.2396 11.7994 22.3699 11.588 22.5431 11.4147C22.7162 11.2413 22.9274 11.1108 23.1598 11.0334L23.9259 10.7847C23.9843 10.7635 24.0348 10.7248 24.0704 10.674C24.1061 10.6231 24.1252 10.5625 24.1252 10.5004C24.1252 10.4382 24.1061 10.3776 24.0704 10.3268C24.0348 10.2759 23.9843 10.2372 23.9259 10.2161L23.9097 10.2123Z" fill="#343434"/>
<path d="M11.8672 21.6504H14.7891L13.3516 17.1191L11.8672 21.6504ZM12.0156 14.4863H14.7344L18.8125 26.002H16.2031L15.4609 23.6348H11.2188L10.4219 26.002H7.90625L12.0156 14.4863ZM22.4844 26.002H20.0938V14.4863H22.4844V26.002Z" fill="#343434"/>
</g>
<defs>
<filter id="filter0_b_984_575" x="-20" y="-20" width="72" height="72" filterUnits="userSpaceOnUse" color-interpolation-filters="sRGB">
<feFlood flood-opacity="0" result="BackgroundImageFix"/>
<feGaussianBlur in="BackgroundImageFix" stdDeviation="10"/>
<feComposite in2="SourceAlpha" operator="in" result="effect1_backgroundBlur_984_575"/>
<feBlend mode="normal" in="SourceGraphic" in2="effect1_backgroundBlur_984_575" result="shape"/>
</filter>
</defs>
</svg>
