<svg width="32" height="32" viewBox="0 0 32 32" fill="none" xmlns="http://www.w3.org/2000/svg">
<g filter="url(#filter0_b_984_57)">
<path d="M15.8627 27.5172L10.2916 28L10.7744 22.4289L22.3623 10.9153C22.5352 10.7385 22.7418 10.5979 22.9698 10.502C23.1978 10.406 23.4427 10.3566 23.6901 10.3566C23.9375 10.3566 24.1823 10.406 24.4103 10.502C24.6384 10.5979 24.8449 10.7385 25.0179 10.9153L27.3763 13.2923C27.5501 13.4651 27.6881 13.6705 27.7822 13.8968C27.8763 14.1231 27.9248 14.3657 27.9248 14.6108C27.9248 14.8559 27.8763 15.0986 27.7822 15.3248C27.6881 15.5511 27.5501 15.7566 27.3763 15.9293L15.8627 27.5172ZM4.56455 10.3768C3.91273 10.2635 3.91273 9.32759 4.56455 9.21431C5.71866 9.01344 6.78681 8.47344 7.63282 7.66314C8.47884 6.85285 9.06439 5.80897 9.31482 4.66459L9.35382 4.48446C9.49496 3.84193 10.4123 3.83636 10.5609 4.48074L10.6073 4.68873C10.8669 5.82802 11.4574 6.8652 12.3045 7.67004C13.1516 8.47487 14.2177 9.01147 15.3687 9.21245C16.0243 9.32387 16.0243 10.2654 15.3687 10.3805C14.2176 10.581 13.1513 11.1172 12.3038 11.9217C11.4564 12.7262 10.8655 13.7632 10.6055 14.9024L10.5572 15.1122C10.4105 15.7548 9.4931 15.751 9.35196 15.1067L9.31482 14.9265C9.06414 13.7816 8.47804 12.7374 7.63131 11.927C6.78458 11.1167 5.71562 10.577 4.56083 10.3768H4.56455Z" stroke="#343434" stroke-width="1.8" stroke-linecap="round" stroke-linejoin="round"/>
</g>
<defs>
<filter id="filter0_b_984_57" x="-20" y="-20" width="72" height="72" filterUnits="userSpaceOnUse" color-interpolation-filters="sRGB">
<feFlood flood-opacity="0" result="BackgroundImageFix"/>
<feGaussianBlur in="BackgroundImageFix" stdDeviation="10"/>
<feComposite in2="SourceAlpha" operator="in" result="effect1_backgroundBlur_984_57"/>
<feBlend mode="normal" in="SourceGraphic" in2="effect1_backgroundBlur_984_57" result="shape"/>
</filter>
</defs>
</svg>
