<svg width="24" height="20" viewBox="0 0 24 20" fill="none" xmlns="http://www.w3.org/2000/svg">
<path d="M2.28342 19.4727C1.65346 19.4727 1.1154 19.2497 0.669254 18.8035C0.223085 18.3573 0 17.8193 0 17.1893V2.80881C0 2.17885 0.223085 1.64079 0.669254 1.19464C1.1154 0.748475 1.65346 0.525391 2.28342 0.525391H21.7166C22.3465 0.525391 22.8846 0.748475 23.3307 1.19464C23.7769 1.64079 24 2.17885 24 2.80881V17.1893C24 17.8193 23.7769 18.3573 23.3307 18.8035C22.8846 19.2497 22.3465 19.4727 21.7166 19.4727H2.28342ZM8.84206 17.578H21.7166C21.83 17.578 21.9231 17.5416 21.996 17.4687C22.0688 17.3958 22.1053 17.3027 22.1053 17.1893V2.80881C22.1053 2.69544 22.0688 2.60231 21.996 2.52943C21.9231 2.45654 21.83 2.4201 21.7166 2.4201H8.84206V17.578ZM6.94735 17.578V2.4201H2.28342C2.17005 2.4201 2.07692 2.45654 2.00404 2.52943C1.93115 2.60231 1.89471 2.69544 1.89471 2.80881V17.1893C1.89471 17.3027 1.93115 17.3958 2.00404 17.4687C2.07692 17.5416 2.17005 17.578 2.28342 17.578H6.94735Z" fill="#343434"/>
</svg>
