<svg width="32" height="32" viewBox="0 0 32 32" fill="none" xmlns="http://www.w3.org/2000/svg">
<g filter="url(#filter0_b_984_48)">
<path d="M22.4998 9.5C22.4998 11.2239 21.815 12.8772 20.596 14.0962C19.377 15.3152 17.7237 16 15.9998 16C14.2759 16 12.6226 15.3152 11.4036 14.0962C10.1846 12.8772 9.49979 11.2239 9.49979 9.5C9.49979 7.77609 10.1846 6.12279 11.4036 4.90381C12.6226 3.68482 14.2759 3 15.9998 3C17.7237 3 19.377 3.68482 20.596 4.90381C21.815 6.12279 22.4998 7.77609 22.4998 9.5ZM20.6426 9.5C20.6426 8.26864 20.1535 7.08771 19.2828 6.217C18.4121 5.3463 17.2312 4.85714 15.9998 4.85714C14.7684 4.85714 13.5875 5.3463 12.7168 6.217C11.8461 7.08771 11.3569 8.26864 11.3569 9.5C11.3569 10.7314 11.8461 11.9123 12.7168 12.783C13.5875 13.6537 14.7684 14.1429 15.9998 14.1429C17.2312 14.1429 18.4121 13.6537 19.2828 12.783C20.1535 11.9123 20.6426 10.7314 20.6426 9.5ZM8.10693 17.8571C7.24498 17.8571 6.41833 18.1996 5.80884 18.809C5.19934 19.4185 4.85693 20.2452 4.85693 21.1071V21.5714C4.85693 23.7935 6.27115 25.6729 8.27872 26.9506C10.2974 28.2358 13.0302 29 15.9998 29C18.9694 29 21.7012 28.2358 23.7209 26.9506C25.7284 25.6729 27.1426 23.7935 27.1426 21.5714V21.1071C27.1426 20.2452 26.8002 19.4185 26.1907 18.809C25.5813 18.1996 24.7546 17.8571 23.8926 17.8571H8.10693ZM6.71408 21.1071C6.71408 20.7377 6.86082 20.3835 7.12203 20.1222C7.38325 19.861 7.73752 19.7143 8.10693 19.7143H23.8926C24.2621 19.7143 24.6163 19.861 24.8775 20.1222C25.1388 20.3835 25.2855 20.7377 25.2855 21.1071V21.5714C25.2855 22.9392 24.4126 24.3098 22.7236 25.3841C21.0456 26.452 18.6713 27.1429 15.9998 27.1429C13.3283 27.1429 10.9539 26.452 9.276 25.3841C7.586 24.3107 6.71408 22.9383 6.71408 21.5714V21.1071Z" fill="#343434"/>
</g>
<defs>
<filter id="filter0_b_984_48" x="-20" y="-20" width="72" height="72" filterUnits="userSpaceOnUse" color-interpolation-filters="sRGB">
<feFlood flood-opacity="0" result="BackgroundImageFix"/>
<feGaussianBlur in="BackgroundImageFix" stdDeviation="10"/>
<feComposite in2="SourceAlpha" operator="in" result="effect1_backgroundBlur_984_48"/>
<feBlend mode="normal" in="SourceGraphic" in2="effect1_backgroundBlur_984_48" result="shape"/>
</filter>
</defs>
</svg>
