<svg width="32" height="32" viewBox="0 0 32 32" fill="none" xmlns="http://www.w3.org/2000/svg">
<g filter="url(#filter0_b_984_63)">
<path d="M15.9861 23.0931C16.3468 23.0931 16.6514 22.9686 16.9 22.7195C17.1486 22.4705 17.2729 22.1657 17.2729 21.805C17.2729 21.4443 17.1483 21.1397 16.8993 20.8911C16.6503 20.6425 16.3454 20.5182 15.9847 20.5182C15.6241 20.5182 15.3194 20.6427 15.0709 20.8918C14.8223 21.1408 14.698 21.4457 14.698 21.8063C14.698 22.167 14.8225 22.4716 15.0715 22.7202C15.3206 22.9688 15.6254 23.0931 15.9861 23.0931ZM16.0021 28C14.3424 28 12.7824 27.6851 11.322 27.0552C9.86157 26.4253 8.59123 25.5704 7.51096 24.4906C6.43066 23.4108 5.57543 22.141 4.94526 20.6813C4.31509 19.2215 4 17.6618 4 16.0021C4 14.3424 4.31495 12.7824 4.94484 11.322C5.57474 9.86157 6.42959 8.59123 7.50938 7.51096C8.58919 6.43066 9.85897 5.57543 11.3187 4.94526C12.7785 4.31509 14.3382 4 15.9979 4C17.6576 4 19.2176 4.31495 20.678 4.94485C22.1384 5.57474 23.4088 6.42959 24.489 7.50938C25.5693 8.58919 26.4246 9.85897 27.0547 11.3187C27.6849 12.7785 28 14.3382 28 15.9979C28 17.6576 27.6851 19.2176 27.0552 20.678C26.4253 22.1384 25.5704 23.4088 24.4906 24.489C23.4108 25.5693 22.141 26.4246 20.6813 27.0547C19.2215 27.6849 17.6618 28 16.0021 28ZM16 26.1053C18.8211 26.1053 21.2105 25.1263 23.1684 23.1684C25.1263 21.2105 26.1053 18.8211 26.1053 16C26.1053 13.1789 25.1263 10.7895 23.1684 8.83156C21.2105 6.87366 18.8211 5.89471 16 5.89471C13.1789 5.89471 10.7895 6.87366 8.83156 8.83156C6.87366 10.7895 5.89471 13.1789 5.89471 16C5.89471 18.8211 6.87366 21.2105 8.83156 23.1684C10.7895 25.1263 13.1789 26.1053 16 26.1053ZM16.1023 10.5927C16.6851 10.5927 17.1895 10.7762 17.6154 11.1431C18.0413 11.51 18.2543 11.9687 18.2543 12.519C18.2543 12.9822 18.1182 13.3968 17.8462 13.7628C17.5741 14.1288 17.2632 14.4696 16.9134 14.7854C16.4549 15.1922 16.0512 15.6396 15.7023 16.1278C15.3534 16.6159 15.1668 17.1595 15.1425 17.7587C15.1344 17.9887 15.2154 18.1814 15.3854 18.3368C15.5555 18.4923 15.7539 18.57 15.9806 18.57C16.2235 18.57 16.4291 18.4891 16.5976 18.3271C16.766 18.1652 16.8737 17.9668 16.9206 17.732C17.0048 17.298 17.1842 16.9113 17.4587 16.5721C17.7332 16.2328 18.0305 15.9102 18.3508 15.6043C18.8111 15.1555 19.2129 14.6663 19.5562 14.1365C19.8996 13.6066 20.0712 13.0157 20.0712 12.3636C20.0712 11.3628 19.6769 10.5405 18.8882 9.89678C18.0996 9.25306 17.1789 8.93119 16.1263 8.93119C15.3749 8.93119 14.6664 9.09759 14.0008 9.43039C13.3352 9.76317 12.817 10.2486 12.4462 10.8867C12.3312 11.0826 12.2943 11.2888 12.3354 11.5054C12.3766 11.7219 12.4877 11.8863 12.6688 11.9986C12.8993 12.1269 13.136 12.1636 13.3789 12.1085C13.6218 12.0534 13.8283 11.915 13.9984 11.6931C14.2542 11.3611 14.564 11.0947 14.9275 10.8939C15.2911 10.6931 15.6827 10.5927 16.1023 10.5927Z" fill="#343434"/>
</g>
<defs>
<filter id="filter0_b_984_63" x="-20" y="-20" width="72" height="72" filterUnits="userSpaceOnUse" color-interpolation-filters="sRGB">
<feFlood flood-opacity="0" result="BackgroundImageFix"/>
<feGaussianBlur in="BackgroundImageFix" stdDeviation="10"/>
<feComposite in2="SourceAlpha" operator="in" result="effect1_backgroundBlur_984_63"/>
<feBlend mode="normal" in="SourceGraphic" in2="effect1_backgroundBlur_984_63" result="shape"/>
</filter>
</defs>
</svg>
