<svg width="32" height="32" viewBox="0 0 32 32" fill="none" xmlns="http://www.w3.org/2000/svg">
<g filter="url(#filter0_b_984_52)">
<path d="M23 12.5V14.25C23.6927 14.25 24.3535 14.3275 24.9824 14.4824C25.6113 14.6374 26.1719 14.8926 26.6641 15.248C27.1562 15.6035 27.5391 16.0547 27.8125 16.6016C28.0859 17.1484 28.2318 17.8229 28.25 18.625C28.25 19.2266 28.1361 19.7917 27.9082 20.3203C27.6803 20.849 27.3659 21.3092 26.9648 21.7012C26.5638 22.0931 26.099 22.4076 25.5703 22.6445C25.0417 22.8815 24.4766 23 23.875 23H16.875C16.2734 23 15.7083 22.8861 15.1797 22.6582C14.651 22.4303 14.1908 22.1159 13.7988 21.7148C13.4069 21.3138 13.0924 20.849 12.8555 20.3203C12.6185 19.7917 12.5 19.2266 12.5 18.625C12.5 17.832 12.6413 17.1621 12.9238 16.6152C13.2064 16.0684 13.5938 15.6172 14.0859 15.2617C14.5781 14.9062 15.1341 14.651 15.7539 14.4961C16.3737 14.3411 17.0391 14.2591 17.75 14.25V12.5H16.875C16.0273 12.5 15.2344 12.6595 14.4961 12.9785C13.7578 13.2975 13.1107 13.735 12.5547 14.291C11.9987 14.847 11.5612 15.4941 11.2422 16.2324C10.9232 16.9707 10.7591 17.7682 10.75 18.625C10.75 19.4727 10.9095 20.2656 11.2285 21.0039C11.5475 21.7422 11.985 22.3893 12.541 22.9453C13.097 23.5013 13.7441 23.9388 14.4824 24.2578C15.2207 24.5768 16.0182 24.7409 16.875 24.75H23.875C24.7227 24.75 25.5156 24.5905 26.2539 24.2715C26.9922 23.9525 27.6393 23.515 28.1953 22.959C28.7513 22.403 29.1888 21.7559 29.5078 21.0176C29.8268 20.2793 29.9909 19.4818 30 18.625C30 17.7773 29.8405 16.9844 29.5215 16.2461C29.2025 15.5078 28.765 14.8607 28.209 14.3047C27.653 13.7487 27.0059 13.3112 26.2676 12.9922C25.5293 12.6732 24.7318 12.5091 23.875 12.5H23ZM14.25 19.5V17.75C14.9427 17.75 15.6035 17.6725 16.2324 17.5176C16.8613 17.3626 17.4219 17.1074 17.9141 16.752C18.4062 16.3965 18.7891 15.9453 19.0625 15.3984C19.3359 14.8516 19.4818 14.1771 19.5 13.375C19.5 12.7734 19.3861 12.2083 19.1582 11.6797C18.9303 11.151 18.6159 10.6908 18.2148 10.2988C17.8138 9.9069 17.349 9.59245 16.8203 9.35547C16.2917 9.11849 15.7266 9 15.125 9H8.125C7.52344 9 6.95833 9.11393 6.42969 9.3418C5.90104 9.56966 5.44076 9.88411 5.04883 10.2852C4.6569 10.6862 4.34245 11.151 4.10547 11.6797C3.86849 12.2083 3.75 12.7734 3.75 13.375C3.75 14.168 3.89128 14.8379 4.17383 15.3848C4.45638 15.9316 4.84375 16.3828 5.33594 16.7383C5.82812 17.0938 6.38411 17.349 7.00391 17.5039C7.6237 17.6589 8.28906 17.7409 9 17.75V19.5H8.125C7.27734 19.5 6.48438 19.3405 5.74609 19.0215C5.00781 18.7025 4.36068 18.265 3.80469 17.709C3.2487 17.153 2.8112 16.5059 2.49219 15.7676C2.17318 15.0293 2.00911 14.2318 2 13.375C2 12.5273 2.15951 11.7344 2.47852 10.9961C2.79753 10.2578 3.23503 9.61068 3.79102 9.05469C4.34701 8.4987 4.99414 8.0612 5.73242 7.74219C6.4707 7.42318 7.26823 7.25911 8.125 7.25H15.125C15.9727 7.25 16.7656 7.40951 17.5039 7.72852C18.2422 8.04753 18.8893 8.48503 19.4453 9.04102C20.0013 9.59701 20.4388 10.2441 20.7578 10.9824C21.0768 11.7207 21.2409 12.5182 21.25 13.375C21.25 14.2227 21.0905 15.0156 20.7715 15.7539C20.4525 16.4922 20.015 17.1393 19.459 17.6953C18.903 18.2513 18.2559 18.6888 17.5176 19.0078C16.7793 19.3268 15.9818 19.4909 15.125 19.5H14.25Z" fill="#343434"/>
</g>
<defs>
<filter id="filter0_b_984_52" x="-20" y="-20" width="72" height="72" filterUnits="userSpaceOnUse" color-interpolation-filters="sRGB">
<feFlood flood-opacity="0" result="BackgroundImageFix"/>
<feGaussianBlur in="BackgroundImageFix" stdDeviation="10"/>
<feComposite in2="SourceAlpha" operator="in" result="effect1_backgroundBlur_984_52"/>
<feBlend mode="normal" in="SourceGraphic" in2="effect1_backgroundBlur_984_52" result="shape"/>
</filter>
</defs>
</svg>
