<svg width="32" height="32" viewBox="0 0 32 32" fill="none" xmlns="http://www.w3.org/2000/svg">
<path d="M2.6665 15.9993C2.6665 9.71402 2.6665 6.57135 4.6185 4.61802C6.57317 2.66602 9.7145 2.66602 15.9998 2.66602C22.2852 2.66602 25.4278 2.66602 27.3798 4.61802C29.3332 6.57268 29.3332 9.71402 29.3332 15.9993C29.3332 22.2847 29.3332 25.4273 27.3798 27.3793C25.4292 29.3327 22.2852 29.3327 15.9998 29.3327C9.7145 29.3327 6.57184 29.3327 4.6185 27.3793C2.6665 25.4287 2.6665 22.2847 2.6665 15.9993Z" stroke="#343434" stroke-width="2"/>
<path d="M9.33301 18.6654L11.729 15.7907C12.6783 14.6507 13.153 14.0814 13.777 14.0814C14.4023 14.0814 14.877 14.6507 15.8263 15.7907L16.173 16.2067C17.1223 17.3467 17.597 17.916 18.2223 17.916C18.8463 17.916 19.321 17.3467 20.2703 16.2067L22.6663 13.332" stroke="#343434" stroke-width="2" stroke-linecap="round"/>
</svg>
