<svg width="32" height="32" viewBox="0 0 32 32" fill="none" xmlns="http://www.w3.org/2000/svg">
<g filter="url(#filter0_b_984_67)">
<path d="M14.0812 28C13.7978 28 13.5524 27.9049 13.3451 27.7146C13.1379 27.5243 13.0132 27.2874 12.9711 27.004L12.6043 24.1522C12.2658 24.0389 11.9188 23.8801 11.5634 23.6761C11.2079 23.472 10.8901 23.2534 10.6099 23.0202L7.97184 24.1328C7.7014 24.251 7.43298 24.2647 7.16658 24.174C6.90018 24.0834 6.69086 23.9133 6.53863 23.6639L4.63909 20.3555C4.49494 20.1061 4.4504 19.8397 4.50548 19.5563C4.56053 19.2729 4.70222 19.0446 4.93056 18.8713L7.21398 17.1441C7.18482 16.9563 7.16417 16.7676 7.15202 16.5781C7.13987 16.3887 7.1338 16.2 7.1338 16.0122C7.1338 15.8324 7.13987 15.6498 7.15202 15.4644C7.16417 15.2789 7.18482 15.0761 7.21398 14.8559L4.93056 13.1287C4.70222 12.9554 4.55851 12.7271 4.49941 12.4437C4.4403 12.1603 4.48685 11.8939 4.63909 11.6445L6.53863 8.36037C6.69086 8.11098 6.89816 7.94094 7.16051 7.85024C7.42285 7.75955 7.68924 7.77331 7.95968 7.89155L10.5977 8.99195C10.9022 8.75064 11.2273 8.52999 11.5731 8.32999C11.9188 8.12997 12.2585 7.96923 12.5921 7.84778L12.9711 4.99597C13.0132 4.71256 13.1379 4.47572 13.3451 4.28544C13.5524 4.09515 13.7978 4 14.0812 4H17.907C18.1904 4 18.4378 4.09515 18.6491 4.28544C18.8605 4.47572 18.9872 4.71256 19.0293 4.99597L19.3961 7.85994C19.775 7.99758 20.118 8.15831 20.4249 8.34212C20.7318 8.52593 21.0415 8.74254 21.354 8.99195L24.0407 7.89155C24.3111 7.77331 24.5775 7.75753 24.8398 7.84418C25.1022 7.93081 25.3095 8.09882 25.4617 8.34821L27.3613 11.6445C27.5135 11.8939 27.5601 12.1603 27.5009 12.4437C27.4418 12.7271 27.2981 12.9554 27.0698 13.1287L24.7378 14.8923C24.7832 15.0963 24.8079 15.287 24.8119 15.4644C24.8159 15.6417 24.818 15.8202 24.818 16C24.818 16.1717 24.8139 16.3462 24.8058 16.5235C24.7977 16.7008 24.7686 16.9037 24.7184 17.132L27.0261 18.8713C27.2544 19.0446 27.3981 19.2729 27.4572 19.5563C27.5164 19.8397 27.4698 20.1061 27.3176 20.3555L25.418 23.6445C25.2658 23.8939 25.0532 24.0651 24.7803 24.1583C24.5075 24.2514 24.2358 24.2388 23.9654 24.1206L21.354 23.0081C21.0415 23.2575 20.7224 23.4781 20.3969 23.67C20.0714 23.8619 19.7378 24.0186 19.3961 24.1401L19.0293 27.004C18.9872 27.2874 18.8605 27.5243 18.6491 27.7146C18.4378 27.9049 18.1904 28 17.907 28H14.0812ZM14.737 26.1053H17.2196L17.6739 22.7215C18.3184 22.553 18.9075 22.3138 19.4411 22.0036C19.9747 21.6935 20.4892 21.2948 20.9848 20.8073L24.1233 22.1263L25.367 19.979L22.6269 17.9142C22.7322 17.587 22.8038 17.2664 22.8419 16.9522C22.8799 16.6381 22.899 16.3207 22.899 16C22.899 15.6713 22.8799 15.3539 22.8419 15.0478C22.8038 14.7417 22.7322 14.4292 22.6269 14.1101L25.3913 12.021L24.1476 9.87367L20.9726 11.2121C20.55 10.7603 20.0435 10.3611 19.4532 10.0146C18.8629 9.668 18.2658 9.42266 17.6617 9.27853L17.2633 5.89471H14.7564L14.3386 9.26637C13.6941 9.4186 13.099 9.6518 12.5532 9.96597C12.0075 10.2801 11.4868 10.685 10.9913 11.1806L7.85279 9.87367L6.60905 12.021L9.337 14.0543C9.23174 14.3538 9.15806 14.6656 9.11595 14.9895C9.07384 15.3134 9.05279 15.6543 9.05279 16.0122C9.05279 16.3409 9.07384 16.6632 9.11595 16.979C9.15806 17.2947 9.22769 17.6065 9.32485 17.9142L6.60905 19.979L7.85279 22.1263L10.9791 20.8C11.4585 21.2923 11.971 21.6956 12.5168 22.0097C13.0625 22.3239 13.6658 22.5652 14.3265 22.7336L14.737 26.1053ZM16.0147 19.7895C17.0657 19.7895 17.9601 19.4206 18.6977 18.683C19.4354 17.9453 19.8042 17.051 19.8042 16C19.8042 14.949 19.4354 14.0547 18.6977 13.317C17.9601 12.5794 17.0657 12.2105 16.0147 12.2105C14.9508 12.2105 14.0532 12.5794 13.3221 13.317C12.5909 14.0547 12.2253 14.949 12.2253 16C12.2253 17.051 12.5909 17.9453 13.3221 18.683C14.0532 19.4206 14.9508 19.7895 16.0147 19.7895Z" fill="#343434"/>
</g>
<defs>
<filter id="filter0_b_984_67" x="-20" y="-20" width="72" height="72" filterUnits="userSpaceOnUse" color-interpolation-filters="sRGB">
<feFlood flood-opacity="0" result="BackgroundImageFix"/>
<feGaussianBlur in="BackgroundImageFix" stdDeviation="10"/>
<feComposite in2="SourceAlpha" operator="in" result="effect1_backgroundBlur_984_67"/>
<feBlend mode="normal" in="SourceGraphic" in2="effect1_backgroundBlur_984_67" result="shape"/>
</filter>
</defs>
</svg>
