<svg width="32" height="32" viewBox="0 0 32 32" fill="none" xmlns="http://www.w3.org/2000/svg">
<g filter="url(#filter0_b_984_562)">
<path d="M15.9998 25.1704L9.98105 27.7541C9.06737 28.1448 8.19938 28.0699 7.37706 27.5295C6.55472 26.9891 6.14355 26.229 6.14355 25.2492V6.7411C6.14355 5.97514 6.40892 5.3268 6.93964 4.79608C7.47036 4.26536 8.1187 4 8.88465 4H23.1149C23.8808 4 24.5292 4.26536 25.0599 4.79608C25.5906 5.3268 25.856 5.97514 25.856 6.7411V25.2492C25.856 26.229 25.4448 26.9891 24.6225 27.5295C23.8002 28.0699 22.9322 28.1448 22.0185 27.7541L15.9998 25.1704ZM15.9998 22.651L22.9253 25.6341C23.0809 25.7022 23.2291 25.6876 23.3701 25.5904C23.511 25.4932 23.5815 25.3619 23.5815 25.1967V6.7411C23.5815 6.62444 23.5329 6.5175 23.4357 6.42028C23.3385 6.32308 23.2315 6.27448 23.1149 6.27448H8.88465C8.768 6.27448 8.66106 6.32308 8.56383 6.42028C8.46664 6.5175 8.41804 6.62444 8.41804 6.7411V25.1967C8.41804 25.3619 8.48851 25.4932 8.62945 25.5904C8.77042 25.6876 8.91867 25.7022 9.0742 25.6341L15.9998 22.651Z" fill="#343434"/>
</g>
<defs>
<filter id="filter0_b_984_562" x="-20" y="-20" width="72" height="72" filterUnits="userSpaceOnUse" color-interpolation-filters="sRGB">
<feFlood flood-opacity="0" result="BackgroundImageFix"/>
<feGaussianBlur in="BackgroundImageFix" stdDeviation="10"/>
<feComposite in2="SourceAlpha" operator="in" result="effect1_backgroundBlur_984_562"/>
<feBlend mode="normal" in="SourceGraphic" in2="effect1_backgroundBlur_984_562" result="shape"/>
</filter>
</defs>
</svg>
